<svg xmlns="http://www.w3.org/2000/svg" xmlns:xlink="http://www.w3.org/1999/xlink" version="1.1" width="256" height="256" viewBox="0 0 256 256" xml:space="preserve">

<defs>
</defs>
<g style="stroke: none; stroke-width: 0; stroke-dasharray: none; stroke-linecap: butt; stroke-linejoin: miter; stroke-miterlimit: 10; fill: none; fill-rule: nonzero; opacity: 1;" transform="translate(1.4065934065934016 1.4065934065934016) scale(2.81 2.81)" >
	<path d="M 82.366 90 c 3.771 0 6.828 -3.057 6.828 -6.828 v -5.321 H 28.117 v 5.321 c 0 3.771 -3.057 6.828 -6.828 6.828 H 82.366" style="stroke: none; stroke-width: 1; stroke-dasharray: none; stroke-linecap: butt; stroke-linejoin: miter; stroke-miterlimit: 10; fill: rgb(0,0,0); fill-rule: nonzero; opacity: 1;" transform=" matrix(1 0 0 1 0 0) " stroke-linecap="round" />
	<path d="M 0.806 9.925 h 7.763 V 6.828 c 0 -2.14 -1.741 -3.881 -3.881 -3.881 S 0.806 4.688 0.806 6.828 V 9.925 z" style="stroke: none; stroke-width: 1; stroke-dasharray: none; stroke-linecap: butt; stroke-linejoin: miter; stroke-miterlimit: 10; fill: rgb(0,0,0); fill-rule: nonzero; opacity: 1;" transform=" matrix(1 0 0 1 0 0) " stroke-linecap="round" />
	<path d="M 45.908 34.079 c 3.811 0 6.9 -3.089 6.9 -6.9 c 0 -3.811 -3.089 -6.9 -6.9 -6.9 s -6.9 3.089 -6.9 6.9 S 42.097 34.079 45.908 34.079 z" style="stroke: none; stroke-width: 1; stroke-dasharray: none; stroke-linecap: butt; stroke-linejoin: miter; stroke-miterlimit: 10; fill: rgb(0,0,0); fill-rule: nonzero; opacity: 1;" transform=" matrix(1 0 0 1 0 0) " stroke-linecap="round" />
	<path d="M 72.592 0 H 4.688 c 3.771 0 6.828 3.057 6.828 6.828 v 73.399 c 0 3.771 3.057 6.828 6.828 6.828 c 3.771 0 6.828 -3.057 6.828 -6.828 v -5.321 H 79.42 V 6.828 C 79.42 3.057 76.363 0 72.592 0 z M 31.565 27.179 c 0 -0.218 0.005 -0.434 0.015 -0.65 c 0.05 -1.08 -0.479 -2.104 -1.415 -2.644 c -1.36 -0.785 -1.826 -2.525 -1.041 -3.885 l 2.175 -3.767 c 0.785 -1.36 2.525 -1.826 3.885 -1.041 l 0.001 0.001 c 0.923 0.533 2.064 0.502 2.959 -0.075 c 0.389 -0.251 0.791 -0.483 1.205 -0.696 c 0.946 -0.487 1.54 -1.459 1.54 -2.523 v -0.001 c 0 -1.571 1.273 -2.844 2.844 -2.844 h 4.35 c 1.571 0 2.844 1.273 2.844 2.844 v 0.001 c 0 1.063 0.594 2.036 1.54 2.523 c 0.414 0.213 0.816 0.445 1.205 0.696 c 0.896 0.577 2.037 0.608 2.959 0.075 l 0.001 -0.001 c 1.36 -0.785 3.1 -0.319 3.885 1.041 L 62.692 20 c 0.785 1.36 0.319 3.1 -1.041 3.885 v 0 c -0.936 0.541 -1.465 1.564 -1.415 2.644 c 0.01 0.215 0.015 0.432 0.015 0.65 s -0.005 0.434 -0.015 0.65 c -0.05 1.08 0.479 2.104 1.415 2.644 c 1.36 0.785 1.826 2.525 1.041 3.885 l -2.175 3.767 c -0.785 1.36 -2.525 1.826 -3.885 1.041 l -0.001 -0.001 c -0.923 -0.533 -2.064 -0.502 -2.959 0.075 c -0.389 0.251 -0.791 0.483 -1.205 0.696 c -0.946 0.487 -1.54 1.459 -1.54 2.523 v 0.001 c 0 1.571 -1.273 2.844 -2.844 2.844 h -4.35 c -1.571 0 -2.844 -1.273 -2.844 -2.844 v -0.001 c 0 -1.063 -0.594 -2.036 -1.54 -2.523 c -0.414 -0.213 -0.816 -0.445 -1.205 -0.696 c -0.896 -0.577 -2.037 -0.608 -2.959 -0.075 l -0.001 0.001 c -1.36 0.785 -3.1 0.319 -3.885 -1.041 l -2.175 -3.767 c -0.785 -1.36 -0.319 -3.1 1.041 -3.885 c 0.936 -0.541 1.465 -1.564 1.415 -2.644 C 31.57 27.613 31.565 27.396 31.565 27.179 z M 63.073 66.988 H 28.742 c -0.829 0 -1.5 -0.672 -1.5 -1.5 s 0.671 -1.5 1.5 -1.5 h 34.331 c 0.828 0 1.5 0.672 1.5 1.5 S 63.901 66.988 63.073 66.988 z M 63.073 56.761 H 28.742 c -0.829 0 -1.5 -0.672 -1.5 -1.5 s 0.671 -1.5 1.5 -1.5 h 34.331 c 0.828 0 1.5 0.672 1.5 1.5 S 63.901 56.761 63.073 56.761 z" style="stroke: none; stroke-width: 1; stroke-dasharray: none; stroke-linecap: butt; stroke-linejoin: miter; stroke-miterlimit: 10; fill: rgb(0,0,0); fill-rule: nonzero; opacity: 1;" transform=" matrix(1 0 0 1 0 0) " stroke-linecap="round" />
</g>
</svg>